<?xml version="1.0" encoding="UTF-8" standalone="no"?>
<!DOCTYPE svg PUBLIC "-//W3C//DTD SVG 20010904//EN"
              "http://www.w3.org/TR/2001/REC-SVG-20010904/DTD/svg10.dtd">

<svg xmlns="http://www.w3.org/2000/svg"
     width="18.3727mm" height="18.3304mm"
     viewBox="0 0 434 433">
  <path id="Selection"
        fill="#FFA700" stroke="#FFA700" stroke-width="1"
        d="M 198.00,0.21
           C 198.00,0.21 228.00,0.21 228.00,0.21
             249.83,0.03 278.75,7.30 299.00,15.40
             320.83,24.13 341.20,36.66 359.00,52.00
             428.87,112.21 451.96,209.21 419.58,295.00
             410.27,319.66 396.36,341.06 379.27,361.00
             364.18,378.60 340.68,397.07 320.00,407.74
             292.29,422.04 257.42,432.95 226.00,433.00
             226.00,433.00 206.00,433.00 206.00,433.00
             187.42,432.78 164.62,427.54 147.00,421.67
             126.18,414.73 106.72,404.84 89.00,391.85
             6.42,331.28 -21.54,222.42 18.43,129.00
             40.28,77.92 83.46,36.07 135.00,15.45
             159.15,5.79 172.94,4.00 198.00,0.21 Z" />
</svg>
