<?xml version="1.0" encoding="UTF-8" standalone="no"?>
<!DOCTYPE svg PUBLIC "-//W3C//DTD SVG 20010904//EN"
              "http://www.w3.org/TR/2001/REC-SVG-20010904/DTD/svg10.dtd">

<svg xmlns="http://www.w3.org/2000/svg"
     width="25.4424mm" height="24.5957mm"
     viewBox="0 0 601 581">
  <path id="Selection"
        fill="#007AFF" stroke="#007AFF" stroke-width="1"
        d="M 421.00,0.21
           C 421.00,0.21 449.00,0.21 449.00,0.21
             457.42,0.10 471.65,3.03 480.00,5.13
             545.69,21.62 594.70,80.77 600.08,148.00
             600.08,148.00 601.00,158.00 601.00,158.00
             601.41,193.74 591.52,228.76 570.57,258.00
             558.66,274.62 539.68,292.32 525.00,307.00
             525.00,307.00 436.00,396.00 436.00,396.00
             436.00,396.00 412.00,419.91 412.00,419.91
             412.00,419.91 399.31,431.17 399.31,431.17
             396.35,434.73 394.70,451.28 393.35,457.00
             389.87,471.72 383.88,485.73 376.69,499.00
             353.74,541.33 311.66,569.22 265.00,578.55
             250.74,581.40 238.40,581.16 224.00,581.00
             212.48,580.86 194.05,576.65 183.00,573.00
             149.83,562.04 120.88,540.78 101.02,512.00
             86.63,491.13 81.79,474.89 72.80,452.00
             72.80,452.00 39.40,366.00 39.40,366.00
             39.40,366.00 20.40,317.00 20.40,317.00
             12.31,296.62 4.97,279.94 1.44,258.00
             -0.43,246.37 -0.02,234.74 0.00,223.00
             0.02,212.07 2.47,200.58 5.13,190.00
             22.29,121.64 82.68,74.76 152.00,69.91
             152.00,69.91 160.00,69.04 160.00,69.04
             160.00,69.04 180.00,70.28 180.00,70.28
             201.67,72.88 220.66,78.57 240.00,88.78
             240.00,88.78 257.00,99.34 257.00,99.34
             258.67,100.49 262.41,103.68 264.42,103.33
             266.93,102.90 277.55,91.45 280.00,89.00
             280.00,89.00 321.00,48.00 321.00,48.00
             342.59,26.66 370.43,10.91 400.00,3.88
             400.00,3.88 421.00,0.21 421.00,0.21 Z" />
	<path id="Selection #1"
        fill="#003e96" stroke="#003e96" stroke-width="1"
        d="M 264.00,107.45
           C 268.47,107.71 269.66,109.73 273.00,112.58
             279.70,118.30 285.54,124.99 290.87,132.00
             297.09,140.18 302.90,148.89 307.68,158.00
             307.68,158.00 334.42,225.00 334.42,225.00
             334.42,225.00 375.20,330.00 375.20,330.00
             384.78,354.37 396.68,380.34 397.00,407.00
             397.00,407.00 397.00,424.00 397.00,424.00
             397.00,426.46 397.21,429.64 395.98,431.83
             393.66,435.97 378.75,444.49 374.00,447.14
             354.95,457.77 325.87,465.97 304.00,466.00
             304.00,466.00 287.00,466.00 287.00,466.00
             277.66,465.89 261.13,462.73 252.00,460.14
             186.88,441.69 139.84,384.50 134.91,317.00
             134.91,317.00 134.00,307.00 134.00,307.00
             133.55,268.36 145.66,232.49 169.42,202.00
             169.42,202.00 218.00,152.00 218.00,152.00
             218.00,152.00 248.00,122.00 248.00,122.00
             252.50,117.50 258.53,110.26 264.00,107.45 Z" />
</svg>
