<?xml version="1.0" encoding="UTF-8" standalone="no"?>
<!DOCTYPE svg PUBLIC "-//W3C//DTD SVG 20010904//EN"
              "http://www.w3.org/TR/2001/REC-SVG-20010904/DTD/svg10.dtd">

<svg xmlns="http://www.w3.org/2000/svg"
     width="19.7697mm" height="19.812mm"
     viewBox="0 0 467 468">
  <path id="Selection"
        fill="#007AFF" stroke="#007AFF" stroke-width="1"
        d="M 299.00,0.67
           C 306.21,-0.45 305.72,0.48 312.00,0.67
             325.60,1.84 331.49,2.25 345.00,5.63
             412.14,22.42 461.06,81.15 466.09,150.00
             466.09,150.00 467.00,160.00 467.00,160.00
             467.41,195.06 457.10,230.41 436.57,259.00
             424.24,276.18 403.30,295.70 388.00,311.00
             388.00,311.00 323.00,376.00 323.00,376.00
             306.21,392.79 278.81,421.77 261.00,435.11
             235.07,454.52 204.31,465.62 172.00,467.04
             172.00,467.04 161.00,467.91 161.00,467.91
             143.41,466.91 125.77,464.69 109.00,458.92
             61.20,442.47 23.46,403.96 7.67,356.00
             -0.00,332.69 -0.04,318.84 0.00,295.00
             0.05,261.04 16.83,223.61 38.44,198.00
             38.44,198.00 84.00,152.00 84.00,152.00
             84.00,152.00 164.00,72.00 164.00,72.00
             182.64,53.36 199.52,34.03 223.00,21.31
             240.35,11.90 257.46,5.58 277.00,2.44
             277.00,2.44 299.00,0.67 299.00,0.67 Z" />
</svg>
