<?xml version="1.0" encoding="UTF-8" standalone="no"?>
<!DOCTYPE svg PUBLIC "-//W3C//DTD SVG 20010904//EN"
              "http://www.w3.org/TR/2001/REC-SVG-20010904/DTD/svg10.dtd">

<svg xmlns="http://www.w3.org/2000/svg"
     width="13.2927mm" height="7.87402mm"
     viewBox="0 0 314 186">
  <path id="Selection"
        fill="#007AFF" stroke="#007AFF" stroke-width="1"
        d="M 0.00,161.00
           C 4.45,154.78 16.06,143.94 22.00,138.00
             22.00,138.00 62.00,98.00 62.00,98.00
             62.00,98.00 101.00,59.00 101.00,59.00
             110.05,49.95 118.73,40.59 129.00,32.89
             155.38,13.14 184.34,3.16 217.00,0.91
             217.00,0.91 229.00,0.01 229.00,0.01
             229.00,0.01 238.00,0.91 238.00,0.91
             258.93,2.35 274.63,5.83 294.00,14.15
             299.80,16.64 302.49,17.87 308.00,21.15
             309.76,22.21 312.80,23.70 312.80,26.10
             312.80,28.23 310.35,30.56 308.98,32.00
             308.98,32.00 297.00,44.00 297.00,44.00
             297.00,44.00 250.00,91.00 250.00,91.00
             229.53,111.47 198.16,145.55 175.00,160.31
             123.12,193.36 51.93,194.80 0.00,161.00 Z" />
</svg>
