<svg width="644" height="244" viewBox="0 0 644 244" fill="none" xmlns="http://www.w3.org/2000/svg">
<path d="M119.494 195.484H0.806152V141.798L119.69 0.654297H176.301V144.922H205.778V195.484H176.301V239.408H119.494V195.484ZM119.494 144.922V71.1286L56.6365 144.922H119.494Z" fill="#5355DF"/>
<path d="M226.08 121.105C226.08 76.3996 234.083 45.3596 250.091 27.3994C266.098 9.6344 290.694 0.654297 323.49 0.654297C339.302 0.654297 352.186 2.60649 362.337 6.51089C372.488 10.4153 380.687 15.491 387.129 21.738C393.57 27.9851 398.646 34.6226 402.355 41.4552C406.064 48.2879 408.992 56.2919 411.335 65.4673C415.629 83.037 417.972 101.192 417.972 120.129C417.972 162.687 410.749 193.922 396.303 213.639C381.858 233.356 357.066 243.312 321.928 243.312C302.212 243.312 286.205 240.189 274.101 233.942C261.998 227.695 252.043 218.324 244.234 206.221C238.573 197.631 234.083 185.723 230.96 170.691C227.836 155.854 226.08 139.26 226.08 121.105ZM290.89 121.3C290.89 151.169 293.623 171.667 298.893 182.599C304.164 193.531 311.777 198.998 321.928 198.998C328.565 198.998 334.226 196.655 339.107 191.97C343.987 187.284 347.501 180.061 349.843 169.91C352.186 159.954 353.357 144.336 353.357 123.057C353.357 91.8219 350.624 70.9334 345.353 60.1963C340.083 49.4592 332.079 44.1883 321.538 44.1883C310.801 44.1883 302.993 49.6545 298.112 60.5868C293.232 71.3238 290.89 91.6267 290.89 121.3Z" fill="#5355DF"/>
<path d="M556.962 195.484H438.079V141.798L556.962 0.654297H613.768V144.922H643.245V195.484H613.768V239.408H556.962V195.484ZM556.962 144.922V71.1286L494.104 144.922H556.962Z" fill="#5355DF"/>
</svg>
